<?xml version="1.0" encoding="UTF-8" standalone="no"?>
<!DOCTYPE svg PUBLIC "-//W3C//DTD SVG 1.1//EN" "http://www.w3.org/Graphics/SVG/1.1/DTD/svg11.dtd">
<svg width="100%" height="100%" viewBox="0 0 256 256" version="1.1" xmlns="http://www.w3.org/2000/svg" xmlns:xlink="http://www.w3.org/1999/xlink" xml:space="preserve" xmlns:serif="http://www.serif.com/" style="fill-rule:evenodd;clip-rule:evenodd;stroke-linejoin:round;stroke-miterlimit:2;">
    <g id="Layer1" transform="matrix(0.449023,0,0,0.449023,85.4419,-15.8888)">
        <g transform="matrix(4.16667,0,0,4.16667,-1085.08,0)">
            <path d="M336.065,45.414C336.065,60.173 324.101,72.139 309.341,72.139C294.581,72.139 282.615,60.173 282.615,45.414C282.615,30.654 294.581,18.688 309.341,18.688C324.101,18.688 336.065,30.654 336.065,45.414Z" style="fill:white;fill-rule:nonzero;"/>
        </g>
        <g transform="matrix(4.16667,0,0,4.16667,-1085.08,0)">
            <path d="M275.799,53.311C275.799,67.85 264.013,79.635 249.475,79.635C234.937,79.635 223.15,67.85 223.15,53.311C223.15,38.772 234.937,26.987 249.475,26.987C264.013,26.987 275.799,38.772 275.799,53.311Z" style="fill:white;fill-rule:nonzero;"/>
        </g>
        <g transform="matrix(4.16667,0,0,4.16667,-1085.08,0)">
            <path d="M312.438,130.131C298.908,130.131 287.94,123.959 287.94,116.343C287.94,108.729 298.908,102.556 312.438,102.556C325.968,102.556 336.937,108.729 336.937,116.343C336.937,123.959 325.968,130.131 312.438,130.131Z" style="fill:rgb(54,145,204);fill-rule:nonzero;"/>
        </g>
        <g transform="matrix(4.16667,0,0,4.16667,-1085.08,0)">
            <path d="M235.395,138.158C227.282,138.158 220.705,134.456 220.705,129.89C220.705,125.324 227.282,121.623 235.395,121.623C243.508,121.623 250.085,125.324 250.085,129.89C250.085,134.456 243.508,138.158 235.395,138.158Z" style="fill:rgb(54,145,204);fill-rule:nonzero;"/>
        </g>
        <g transform="matrix(4.16667,0,0,4.16667,-1085.08,0)">
            <path d="M257.681,125.699C248.569,125.699 241.184,121.542 241.184,116.414C241.184,111.286 248.569,107.129 257.681,107.129C266.792,107.129 274.178,111.286 274.178,116.414C274.178,121.542 266.792,125.699 257.681,125.699Z" style="fill:rgb(54,145,204);fill-rule:nonzero;"/>
        </g>
        <g transform="matrix(4.16667,0,0,4.16667,-1085.08,0)">
            <path d="M315.645,56.912C315.387,55.356 313.425,53.086 311.96,54.236C310.093,55.703 306.056,58.157 306.056,58.157C306.056,58.157 303.498,56.284 301.903,54.709C299.131,51.973 298.475,50.591 296.47,51.435C294.764,52.153 292.376,55.345 294.536,57.951C296.695,60.556 301.338,63.662 305.063,64.575C308.786,65.489 311.97,61.587 314.141,59.895C314.878,59.321 315.963,58.83 315.645,56.912Z" style="fill:rgb(20,106,157);fill-rule:nonzero;"/>
        </g>
        <g transform="matrix(4.16667,0,0,4.16667,-1085.08,0)">
            <path d="M333.389,50.712C333.389,50.712 334.081,51.469 332.904,53.401C331.934,54.994 330.888,56.013 330.377,55.757C329.585,55.359 328.923,52.53 329.905,51.354C330.888,50.18 333.389,50.712 333.389,50.712Z" style="fill:rgb(204,51,41);fill-rule:nonzero;"/>
        </g>
        <g transform="matrix(4.16667,0,0,4.16667,-1085.08,0)">
            <path d="M312.755,39.783C312.755,39.783 310.83,38.95 309.232,38.047C307.635,37.144 304.301,35.755 301.522,34.852C298.744,33.949 297.285,31.587 295.479,31.31C293.674,31.032 292.632,31.865 292.841,32.699C293.049,33.532 294.924,34.157 295.133,34.366C295.341,34.574 294.279,34.904 293.709,35.234C292.987,35.65 293.5,35.859 294.019,35.872C294.305,35.879 295.133,35.616 295.896,35.755C296.66,35.894 297.401,35.626 298.305,36.247C299.208,36.868 301.764,38.473 304.301,39.783C307.039,41.198 309.164,42.971 310.552,43.951C311.94,44.931 312.755,39.783 312.755,39.783Z" style="fill:rgb(251,195,178);fill-rule:nonzero;"/>
        </g>
        <g transform="matrix(4.16667,0,0,4.16667,-1085.08,0)">
            <path d="M311.073,38.266C311.073,38.266 309.622,39.228 309.044,40.964C308.412,42.865 309.271,44.08 309.271,44.08C309.271,44.08 312.788,46.344 314.799,47.519C316.81,48.692 318.954,42.012 318.954,42.012C318.954,42.012 317.319,40.688 315.539,39.893C313.758,39.097 311.073,38.266 311.073,38.266Z" style="fill:rgb(20,110,76);fill-rule:nonzero;"/>
        </g>
        <g transform="matrix(4.16667,0,0,4.16667,-1085.08,0)">
            <path d="M310.565,107.074C310.565,107.074 309.596,108.128 308.302,109.39C307.104,110.559 306.732,110.895 305.62,111.98C304.971,112.614 305.506,113.196 306.743,113.149C307.831,113.107 310.295,112.577 311.673,112.082C312.652,111.73 314.447,110.738 315.364,110.158C316.281,109.578 316.46,108.773 316.46,108.773L316.46,106.824L310.565,107.074Z" style="fill:rgb(47,48,47);fill-rule:nonzero;"/>
        </g>
        <g transform="matrix(4.16667,0,0,4.16667,-1085.08,0)">
            <path d="M325.969,109.501C325.969,109.501 325.744,111.498 325.606,114.008C325.469,116.517 325.823,118.733 326.59,119.009C327.357,119.285 329.542,119.25 330.784,115.766C332.026,112.282 331.286,108.902 331.286,108.902L325.969,109.501Z" style="fill:rgb(47,48,47);fill-rule:nonzero;"/>
        </g>
        <g transform="matrix(4.16667,0,0,4.16667,-1085.08,0)">
            <path d="M328.454,75.166C328.912,68.016 324.971,64.257 324.971,64.257C325.284,61.848 314.108,65.22 314.108,65.22C314.108,65.22 311.715,78.173 310.704,84.994C309.555,92.746 310.058,106.583 310.058,106.583C310.058,106.583 310.203,108.269 313.09,108.258C315.307,108.249 317.133,106.446 317.133,106.446L317.362,90.291L319.929,77.549C319.929,77.549 320.368,89.439 321.995,92.871C324.971,99.146 324.971,110.207 324.971,110.207C324.971,110.207 328.719,111.544 331.286,110.261C333.853,108.978 333.348,107.544 333.348,107.544C333.348,107.544 332.7,98.967 329.399,91.542C329.125,85.905 328.243,78.45 328.454,75.166Z" style="fill:rgb(19,102,164);fill-rule:nonzero;"/>
        </g>
        <g transform="matrix(4.16667,0,0,4.16667,-1085.08,0)">
            <path d="M312.264,69.881C316.084,74.002 323.767,74.224 328.934,71.418C328.527,68.759 327.294,64.898 327.497,63.335C328.134,58.443 329.106,49.508 328.934,48.214C328.645,46.05 324.153,43.704 324.153,43.704C324.153,43.704 321.6,40.347 317.992,41.767C317.992,41.767 314.03,44.978 313.57,49.381C313.343,51.567 312.75,60.526 312.771,65.353C312.774,66.42 312.464,68.06 312.264,69.881Z" style="fill:rgb(41,146,110);fill-rule:nonzero;"/>
        </g>
        <g transform="matrix(4.16667,0,0,4.16667,-1085.08,0)">
            <path d="M318.725,41.693L318.492,45.085C318.492,45.085 318.583,46.717 320.084,46.725C322.551,46.739 324.153,43.704 324.153,43.704L323.206,38.438L318.725,41.693Z" style="fill:rgb(248,170,150);fill-rule:nonzero;"/>
        </g>
        <g transform="matrix(4.16667,0,0,4.16667,-1085.08,0)">
            <path d="M323.73,32.65C322.455,31.024 318.789,29.655 316.399,33.19C313.895,36.897 316.262,42.958 318.456,42.604C319.686,42.407 322.452,41.287 323.664,39.307C325.029,37.079 324.722,33.913 323.73,32.65Z" style="fill:rgb(251,195,178);fill-rule:nonzero;"/>
        </g>
        <g transform="matrix(4.16667,0,0,4.16667,-1085.08,0)">
            <path d="M315.459,34.43C315.968,35.242 316.761,36.194 318.804,36.301C320.476,36.39 321.796,35.89 321.796,35.89L321.653,38.123C321.653,38.123 321.988,38.135 322.266,38.039C322.486,37.191 322.85,36.992 323.264,37.35C323.732,37.754 323.664,39.307 323.664,39.307C323.664,39.307 325.433,37.779 325.426,35.223C325.421,33.631 324.028,30.18 321.11,29.818C318.192,29.457 316.114,30.982 315.401,32.541C315.044,33.322 315.229,34.063 315.459,34.43Z" style="fill:rgb(21,22,22);fill-rule:nonzero;"/>
        </g>
        <g transform="matrix(4.16667,0,0,4.16667,-1085.08,0)">
            <path d="M330.52,48.419C330.52,48.419 333.795,52.349 335.351,53.332C336.906,54.314 338.708,54.987 341.573,57.353C344.439,59.718 344.111,59.964 346.158,60.947C348.205,61.929 350.58,62.912 349.843,64.058C349.106,65.205 346.801,64.616 345.913,64.058C344.849,63.39 344.628,62.666 343.907,62.912C343.186,63.157 343.788,63.897 343.743,64.304C343.661,65.037 342.713,65.447 342.802,64.746C342.925,63.771 342.146,61.918 341.982,61.602C341.819,61.286 338.035,59.54 336.783,58.818C335.532,58.095 333.304,56.28 331.83,55.379C330.355,54.478 327.244,52.349 327.244,52.349C327.244,52.349 327.817,47.846 330.52,48.419Z" style="fill:rgb(251,195,178);fill-rule:nonzero;"/>
        </g>
        <g transform="matrix(4.16667,0,0,4.16667,-1085.08,0)">
            <path d="M330.496,53.633C330.887,52.011 331.803,51.096 333.389,50.712C332.837,50.106 331.9,48.442 330.069,47.232C328.194,45.993 326.987,45.577 326.057,46.725C324.229,48.982 324.389,50.877 325.426,52.39C326.63,54.148 329.667,55.417 330.377,55.757C330.188,54.977 330.323,54.353 330.496,53.633Z" style="fill:rgb(20,110,76);fill-rule:nonzero;"/>
        </g>
        <g transform="matrix(4.16667,0,0,4.16667,-1085.08,0)">
            <path d="M307.053,119.544C307.053,119.544 310.982,117.792 312.927,117.708C314.871,117.625 315.059,119.908 312.927,121.678C310.795,123.448 309.162,123.685 307.417,124.402C305.845,125.049 305.28,125.099 304.025,124.286C302.351,123.2 303.692,120.33 303.692,120.33L307.053,119.544Z" style="fill:rgb(34,34,34);fill-rule:nonzero;"/>
        </g>
        <g transform="matrix(4.16667,0,0,4.16667,-1085.08,0)">
            <path d="M295.689,112.811C295.689,112.811 298.811,111.506 300.755,111.422C302.699,111.338 303.396,113.019 301.265,114.789C299.132,116.559 297.798,116.952 296.053,117.669C294.48,118.315 293.924,118.353 292.661,117.552C290.94,116.461 292.285,113.591 292.328,113.596L295.689,112.811Z" style="fill:rgb(34,34,34);fill-rule:nonzero;"/>
        </g>
        <g transform="matrix(4.16667,0,0,4.16667,-1085.08,0)">
            <path d="M307.301,74.095C307.301,74.095 310.73,92.625 310.73,98.444C310.73,108.704 310.641,119.509 310.641,119.509C310.641,119.509 308.939,121.294 307.285,121.299C303.56,121.309 303.184,119.435 303.184,119.435C303.184,119.435 303.132,107.207 302.807,101.652C302.581,97.788 302.355,92.343 300.803,87.853C300.758,92.465 300.77,93.944 300.392,98.966C300.112,102.67 298.568,112.615 298.484,113.264C297.305,114.689 293.643,115.674 291.787,113.586C291.933,111.95 292.963,100.461 292.828,94.506C292.705,89.034 291.309,76.074 294.438,73.549C297.144,71.367 307.301,74.095 307.301,74.095Z" style="fill:rgb(58,58,58);fill-rule:nonzero;"/>
        </g>
        <g transform="matrix(4.16667,0,0,4.16667,-1085.08,0)">
            <path d="M302.919,40.792C301.553,39.843 298.925,40.139 297.784,42.548C297.153,43.882 298.045,47.468 298.186,49.987C298.3,52.018 297.619,53.19 297.619,53.19L299.361,53.908C301.103,54.626 302.919,53.908 302.919,53.908L302.862,50.811C302.862,50.811 304.738,50.532 305.066,50.231C305.857,49.507 306.275,47.353 305.909,44.574C305.363,40.437 303.423,41.142 302.919,40.792Z" style="fill:rgb(251,195,178);fill-rule:nonzero;"/>
        </g>
        <g transform="matrix(4.16667,0,0,4.16667,-1085.08,0)">
            <path d="M292.702,78.047L292.702,79.397C292.702,79.397 296.59,82.728 301.802,81.868C307.014,81.009 308.236,79.39 308.236,79.39L308.006,78.047L292.702,78.047Z" style="fill:rgb(21,22,22);fill-rule:nonzero;"/>
        </g>
        <g transform="matrix(4.16667,0,0,4.16667,-1085.08,0)">
            <path d="M291.787,75.684C290.97,78.681 297.547,80.803 301.157,80.668C304.446,80.546 308.497,79.322 308.84,76.281C308.1,72.641 305.979,67.024 307.563,63.644C308.591,61.449 306.697,57.787 306.043,56.355C305.389,54.923 302.911,53.467 302.911,53.467C302.911,53.467 299.361,53.908 297.988,52.176C296.013,52.557 294.126,54.139 293.117,61.325C292.94,62.585 292.852,67.568 292.652,70.48C292.533,72.227 292.127,71.841 292.33,73.345C292.551,74.976 291.983,74.67 291.787,75.684Z" style="fill:rgb(31,126,178);fill-rule:nonzero;"/>
        </g>
        <g transform="matrix(4.16667,0,0,4.16667,-1085.08,0)">
            <path d="M306.318,40.869C305.306,41.178 304.374,39.566 303.982,39.391C302.478,38.716 299.133,37.535 297.561,39.602C296.269,40.349 294.146,41.56 295.293,45.97C296.034,48.82 297.372,48.645 298.185,50.904C299.603,50.654 300.22,50.353 301.031,49.551C301.846,48.745 301.922,47.669 301.922,47.669C301.922,47.669 300.97,45.786 301.708,45.114C302.493,44.399 303.211,45.58 303.48,45.996C306.132,44.072 306.676,42.051 306.318,40.869Z" style="fill:rgb(44,45,44);fill-rule:nonzero;"/>
        </g>
        <g transform="matrix(4.16667,0,0,4.16667,-1085.08,0)">
            <path d="M302.899,52.825L303.708,53.989C303.708,53.989 300.974,55.468 298.836,54.619C296.904,53.852 296.034,53.165 296.034,53.165C296.034,53.165 296.807,51.749 297.917,51.749C298.569,51.75 299.484,52.502 300.205,52.681C301.802,53.076 302.899,52.825 302.899,52.825Z" style="fill:rgb(234,227,223);fill-rule:nonzero;"/>
        </g>
        <g transform="matrix(4.16667,0,0,4.16667,-1085.08,0)">
            <path d="M322.774,57.951C322.774,57.951 323.868,56.936 324.153,55.796C324.439,54.657 324.654,53.629 325.084,54.036C325.514,54.442 325.177,55.785 325.426,56.323C325.675,56.86 326.343,55.893 327.244,55.463C328.146,55.033 328.684,54.708 328.684,55.757C328.684,56.806 328.599,58.095 327.244,59.116C325.89,60.137 324.278,60.352 323.365,60.889C322.452,61.426 321.322,59.277 321.322,59.277L322.774,57.951Z" style="fill:rgb(251,195,178);fill-rule:nonzero;"/>
        </g>
        <g transform="matrix(4.16667,0,0,4.16667,-1085.08,0)">
            <path d="M324.473,60.004C324.215,58.448 322.252,56.179 320.788,57.329C318.921,58.795 314.884,61.249 314.884,61.249C314.884,61.249 312.326,59.376 310.73,57.802C307.958,55.065 305.617,54.228 304.536,54.619C302.795,55.248 301.549,58.357 303.708,60.962C305.867,63.568 310.165,66.754 313.89,67.668C317.614,68.582 320.797,64.68 322.969,62.988C323.705,62.414 324.79,61.922 324.473,60.004Z" style="fill:rgb(19,102,164);fill-rule:nonzero;"/>
        </g>
        <g transform="matrix(4.16667,0,0,4.16667,-1085.08,0)">
            <path d="M308.84,56.165C308.84,56.165 308.287,57.709 307.799,58.283C307.311,58.858 306.592,59.6 306.592,59.6C306.592,59.6 308.686,61.882 310.499,62.151C312.313,62.42 313.337,60.061 313.337,60.061C313.337,60.061 309.833,56.764 308.84,56.165Z" style="fill:rgb(31,126,178);fill-rule:nonzero;"/>
        </g>
        <g transform="matrix(4.16667,0,0,4.16667,-1085.08,0)">
            <path d="M303.095,42.619C303.095,42.619 306.321,43.659 307.985,42.067C309.648,40.476 304.894,39.307 304.894,39.307L303.095,42.619Z" style="fill:rgb(34,34,34);fill-rule:nonzero;"/>
        </g>
        <g transform="matrix(4.16667,0,0,4.16667,-1085.08,0)">
            <path d="M294.808,44.459L295.293,45.97C295.293,45.97 298.174,47.012 301.802,44.522C305.352,42.087 305.423,40.153 305.423,40.153L304.549,38.756L294.808,44.459Z" style="fill:rgb(58,58,58);fill-rule:nonzero;"/>
        </g>
        <g transform="matrix(4.16667,0,0,4.16667,-1085.08,0)">
            <path d="M295.639,45.309C298.41,45.122 302.188,42.932 304.077,40.419C305.967,37.906 305.251,36.02 302.479,36.207C299.707,36.395 295.929,38.584 294.04,41.098C292.151,43.611 292.867,45.497 295.639,45.309Z" style="fill:rgb(34,34,34);fill-rule:nonzero;"/>
        </g>
        <g transform="matrix(4.16667,0,0,4.16667,-1085.08,0)">
            <path d="M295.623,44.764C298.229,44.587 301.781,42.529 303.557,40.166C305.333,37.803 304.659,36.031 302.054,36.207C299.448,36.383 295.896,38.441 294.12,40.805C292.345,43.167 293.018,44.94 295.623,44.764Z" style="fill:rgb(44,45,44);fill-rule:nonzero;"/>
        </g>
        <g transform="matrix(4.16667,0,0,4.16667,-1085.08,0)">
            <path d="M250.124,51.13C250.124,51.13 249.146,54.052 248.811,55.041C248.477,56.031 247.315,58.885 247.62,60.035C247.78,60.64 250.193,62.53 251.386,61.424C252.261,58.668 253.798,55.972 253.798,55.972C253.798,55.972 252.459,51.284 250.124,51.13Z" style="fill:rgb(246,145,126);fill-rule:nonzero;"/>
        </g>
        <g transform="matrix(4.16667,0,0,4.16667,-1085.08,0)">
            <path d="M250.751,100.993C250.751,100.993 250.57,104.901 250.461,106.475C250.353,108.049 248.511,110.229 247.033,111.288C245.555,112.347 245.123,113.452 245.288,114.624C245.452,115.796 246.704,116.335 248.56,116.702C250.07,117 251.26,115.572 252.925,113.866C254.591,112.16 256.066,111.583 256.23,109.501C256.301,108.604 255.86,107.999 255.696,105.37C255.55,103 255.635,100.313 255.635,100.313L250.751,100.993Z" style="fill:rgb(21,22,22);fill-rule:nonzero;"/>
        </g>
        <g transform="matrix(4.16667,0,0,4.16667,-1085.08,0)">
            <path d="M250.461,106.475L253.175,107.29L253.292,106.38L250.511,105.688L250.461,106.475Z" style="fill:rgb(47,48,47);fill-rule:nonzero;"/>
        </g>
        <g transform="matrix(4.16667,0,0,4.16667,-1085.08,0)">
            <path d="M249.857,108.163L252.479,109.262L252.812,108.41L250.231,107.413L249.857,108.163Z" style="fill:rgb(47,48,47);fill-rule:nonzero;"/>
        </g>
        <g transform="matrix(4.16667,0,0,4.16667,-1085.08,0)">
            <path d="M249.201,109.164L248.639,109.815L251.245,110.894L251.877,110.248L249.201,109.164Z" style="fill:rgb(47,48,47);fill-rule:nonzero;"/>
        </g>
        <g transform="matrix(4.16667,0,0,4.16667,-1085.08,0)">
            <path d="M247.939,110.565L247.218,111.151L249.984,112.295L250.615,111.648L247.939,110.565Z" style="fill:rgb(47,48,47);fill-rule:nonzero;"/>
        </g>
        <g transform="matrix(4.16667,0,0,4.16667,-1085.08,0)">
            <path d="M262.854,104.566C262.854,104.566 262.722,109.263 262.775,110.514C262.828,111.766 262.699,114.029 262.281,114.657C261.586,115.699 261.183,116.693 260.186,118.129C259.725,118.793 259.539,119.542 259.471,120.154C259.394,120.87 259.823,121.537 260.505,121.77C261.476,122.103 262.899,122.52 263.7,122.43C264.997,122.284 265.343,122.228 266.248,120.99C268.517,117.891 268.901,115.714 268.312,111.199C267.765,107.007 268.517,102.913 268.517,102.913L262.854,104.566Z" style="fill:rgb(21,22,22);fill-rule:nonzero;"/>
        </g>
        <g transform="matrix(4.16667,0,0,4.16667,-1085.08,0)">
            <path d="M262.763,109.687L262.775,110.514L265.828,110.998L265.828,110.132L262.763,109.687Z" style="fill:rgb(47,48,47);fill-rule:nonzero;"/>
        </g>
        <g transform="matrix(4.16667,0,0,4.16667,-1085.08,0)">
            <path d="M262.763,111.692L262.775,112.519L265.828,113.11L265.828,112.245L262.763,111.692Z" style="fill:rgb(47,48,47);fill-rule:nonzero;"/>
        </g>
        <g transform="matrix(4.16667,0,0,4.16667,-1085.08,0)">
            <path d="M262.571,113.775L262.281,114.657L265.151,115.283L265.45,114.367L262.571,113.775Z" style="fill:rgb(47,48,47);fill-rule:nonzero;"/>
        </g>
        <g transform="matrix(4.16667,0,0,4.16667,-1085.08,0)">
            <path d="M261.65,115.684L261.187,116.528L264.011,117.144L264.529,116.276L261.65,115.684Z" style="fill:rgb(47,48,47);fill-rule:nonzero;"/>
        </g>
        <g transform="matrix(4.16667,0,0,4.16667,-1085.08,0)">
            <path d="M252.289,70.468C252.289,70.468 251.734,76.98 250.944,80.21C250.153,83.44 248.224,89.228 248.86,90.276C249.496,91.324 249.541,91.779 249.086,92.843C248.594,93.993 248.325,94.116 248.829,95.43C249.332,96.744 248.06,96.99 248.86,98.861C249.132,99.496 247.899,102.589 250.112,103.683C252.325,104.777 253.657,105.171 254.916,104.784C256.765,104.217 257.278,103.18 257.312,102.322C257.462,98.551 257.7,91.534 258.351,88.41C258.599,87.214 261.359,75.142 261.359,75.142L252.289,70.468Z" style="fill:rgb(34,34,34);fill-rule:nonzero;"/>
        </g>
        <g transform="matrix(4.16667,0,0,4.16667,-1085.08,0)">
            <path d="M269.986,95.266C269.077,93.952 270.027,91.324 269.835,89.629C269.642,87.934 269.042,84.261 268.713,81.225C268.385,78.189 267.399,73.914 267.871,73.257L257.668,72.292C257.668,72.292 257.872,79.17 258.351,83.198C258.621,85.487 259.954,90.84 260.439,95.061C260.808,98.266 259.68,99.7 260.624,101.137C261.247,102.086 260.439,103.806 260.389,104.784C260.32,106.121 260.634,106.906 261.359,107.296C262.965,108.159 268.224,108.815 269.742,107.173C270.386,106.478 271.013,105.9 270.52,104.135C270.203,103 270.204,101.237 270.736,100.172C271.341,98.961 270.895,96.58 269.986,95.266Z" style="fill:rgb(34,34,34);fill-rule:nonzero;"/>
        </g>
        <g transform="matrix(4.16667,0,0,4.16667,-1085.08,0)">
            <path d="M255.394,45.536C255.394,45.536 253.791,45.55 252.485,46.929C251.179,48.307 249.161,52.563 249.161,52.563C249.161,52.563 252.076,53.186 253.111,54.278C254.146,55.37 257.379,46.508 257.306,46.131C257.233,45.755 255.394,45.536 255.394,45.536Z" style="fill:rgb(21,22,22);fill-rule:nonzero;"/>
        </g>
        <g transform="matrix(4.16667,0,0,4.16667,-1085.08,0)">
            <path d="M267.449,72.483L252.235,71.029L252.235,72.285C252.235,72.285 254.811,74.837 259.846,75.075C264.81,75.309 266.534,75.028 267.449,74.631C267.449,73.834 267.42,73.112 267.449,72.483Z" style="fill:rgb(21,22,22);fill-rule:nonzero;"/>
        </g>
        <g transform="matrix(4.16667,0,0,4.16667,-1085.08,0)">
            <path d="M256.075,73.094L256.075,74.896C256.075,74.896 256.847,75.312 257.737,75.49C258.627,75.668 259.221,75.49 259.221,75.49L259.221,73.834L256.075,73.094Z" style="fill:white;fill-rule:nonzero;"/>
        </g>
        <g transform="matrix(4.16667,0,0,4.16667,-1085.08,0)">
            <path d="M256.471,73.309L256.471,74.658C256.471,74.658 257.049,74.969 257.715,75.103C258.381,75.235 258.825,75.103 258.825,75.103L258.825,73.863L256.471,73.309Z" style="fill:rgb(21,22,22);fill-rule:nonzero;"/>
        </g>
        <g transform="matrix(4.16667,0,0,4.16667,-1085.08,0)">
            <path d="M263.832,46.679C263.832,46.679 265.325,47.235 266.389,47.675C267.453,48.115 269.428,50.727 269.276,53.277C269.124,55.828 268.213,61.487 267.757,63.723C267.301,65.959 267.453,67.868 268.061,68.804C268.668,69.74 268.984,70.683 268.357,71.832C268.02,72.453 269.284,73.175 267.382,74.125C266.456,74.587 259.312,74.531 256.579,73.65C252.9,72.463 251.084,70.85 251.388,69.957C251.691,69.065 252.713,64.603 252.713,62.786C252.713,60.969 251.953,56.236 252.409,53.915C252.865,51.593 254.305,46.853 255.788,46.426C257.271,45.998 262.058,45.998 263.832,46.679Z" style="fill:rgb(47,48,47);fill-rule:nonzero;"/>
        </g>
        <g transform="matrix(4.16667,0,0,4.16667,-1085.08,0)">
            <path d="M257.915,46.828C257.915,46.828 256.709,50.684 257.689,51.136C260.535,52.45 263.078,48.46 263.729,46.704C262.863,44.647 262.404,40.968 262.404,40.968L257.915,46.828Z" style="fill:rgb(246,145,126);fill-rule:nonzero;"/>
        </g>
        <g transform="matrix(4.16667,0,0,4.16667,-1085.08,0)">
            <path d="M261.258,36.042C259.644,34.722 254.729,34.275 253.294,38.335C252.979,39.229 253.238,40.827 253.329,41.747C253.669,45.208 256.414,48.377 258.036,47.664C259.186,47.158 261.603,45.361 262.283,43.119C263.05,40.596 263.36,37.762 261.258,36.042Z" style="fill:rgb(248,170,150);fill-rule:nonzero;"/>
        </g>
        <g transform="matrix(4.16667,0,0,4.16667,-1085.08,0)">
            <path d="M261.568,50.06C260.243,48.082 261.411,46.786 262.028,44.896C262.438,43.644 262.614,42.155 262.521,40.848L262.272,41.081C262.311,42.271 262.206,43.382 261.859,44.516C261.564,45.483 260.961,46.66 260.764,47.662C260.566,48.671 260.819,49.418 261.466,50.178L261.568,50.06Z" style="fill:rgb(21,22,22);fill-rule:nonzero;"/>
        </g>
        <g transform="matrix(4.16667,0,0,4.16667,-1085.08,0)">
            <path d="M261.07,39.959C261.07,39.959 261.674,39.863 261.958,40.716C262.199,41.437 261.526,42.553 261.526,42.553C261.526,42.553 262.631,41.796 262.516,40.581C262.45,39.899 261.845,39.152 261.07,39.959Z" style="fill:rgb(246,145,126);fill-rule:nonzero;"/>
        </g>
        <g transform="matrix(4.16667,0,0,4.16667,-1085.08,0)">
            <path d="M269.771,56.393C269.578,54.456 264.59,55.38 264.59,55.38L262.708,61.052C261.661,60.15 260.021,58.588 260.135,58.097C260.547,56.346 260.312,54.391 260.508,53.404C260.631,52.781 260.433,52.486 260.062,52.832C260.135,51.941 259.734,51.704 259.414,52.238C259.502,51.526 258.91,51.407 258.613,52.06C258.355,51.329 257.903,51.647 257.722,52.476C257.312,54.351 257.402,54.909 257.305,55.793C257.265,56.155 257.04,57.224 257.04,57.224C257.04,57.224 256.388,56.155 255.675,55.888C255.341,55.763 254.426,55.829 254.948,56.511C255.057,56.653 255.193,56.641 255.557,57.135C256.265,58.099 256.493,58.926 256.743,59.301C257.121,59.868 257.65,60.16 258.228,61.111C258.803,62.063 259.708,63.948 260.601,65.325C261.699,67.017 263.185,67.074 263.352,67.112C264.327,67.332 264.445,67.072 264.993,66.364C267.579,63.026 269.965,58.33 269.771,56.393Z" style="fill:rgb(248,170,150);fill-rule:nonzero;"/>
        </g>
        <g transform="matrix(4.16667,0,0,4.16667,-1085.08,0)">
            <path d="M269.889,59.41C270.391,56.896 271.629,52.82 269.8,49.438C268.82,47.628 266.001,47.294 265.823,47.682C265.013,49.448 264.47,51.021 263.924,53.148C263.695,54.039 263.407,55.82 263.093,57.184C265.573,57.1 267.93,57.659 269.889,59.41Z" style="fill:rgb(21,22,22);fill-rule:nonzero;"/>
        </g>
        <g transform="matrix(4.16667,0,0,4.16667,-1085.08,0)">
            <path d="M261.122,40.802C260.91,40.989 260.821,41.473 261.139,41.596C261.321,41.666 261.733,41.432 261.698,41.107C261.657,40.722 261.341,40.609 261.122,40.802Z" style="fill:rgb(21,22,22);fill-rule:nonzero;"/>
        </g>
        <g transform="matrix(4.16667,0,0,4.16667,-1085.08,0)">
            <path d="M261.207,41.159C261.207,41.159 260.571,40.753 260.433,40.278C260.294,39.804 260.433,39.608 260.433,39.608L260.635,39.76C260.635,39.76 260.594,40.209 260.793,40.459C260.992,40.709 261.315,40.952 261.315,40.952L261.207,41.159Z" style="fill:rgb(21,22,22);fill-rule:nonzero;"/>
        </g>
        <g transform="matrix(4.16667,0,0,4.16667,-1085.08,0)">
            <path d="M253.155,38.616C253.155,38.616 250.155,40.628 249.531,41.168C248.907,41.707 252.468,44.343 254.938,43.556C257.409,42.769 260.433,40.278 260.433,40.278L253.155,38.616Z" style="fill:rgb(21,22,22);fill-rule:nonzero;"/>
        </g>
        <g transform="matrix(4.16667,0,0,4.16667,-1085.08,0)">
            <path d="M253.155,38.616C253.155,38.616 257.286,41.184 259.866,40.448C262.445,39.712 263.145,39.071 263.145,39.071C263.145,39.071 262.921,33.68 258.181,33.68C253.44,33.68 253.155,38.616 253.155,38.616Z" style="fill:rgb(47,48,47);fill-rule:nonzero;"/>
        </g>
        <g transform="matrix(4.16667,0,0,4.16667,-1085.08,0)">
            <path d="M258.392,33.854C258.392,34.072 258.073,34.248 257.681,34.248C257.286,34.248 256.969,34.072 256.969,33.854C256.969,33.637 257.286,33.461 257.681,33.461C258.073,33.461 258.392,33.637 258.392,33.854Z" style="fill:rgb(21,22,22);fill-rule:nonzero;"/>
        </g>
        <g transform="matrix(4.16667,0,0,4.16667,-1085.08,0)">
            <path d="M265.985,81.454C265.592,81.454 265.273,81.275 265.273,81.054L265.273,102.036C265.273,102.257 265.592,102.437 265.985,102.437C266.379,102.437 266.697,102.257 266.697,102.036L266.697,81.054C266.697,81.275 266.379,81.454 265.985,81.454Z" style="fill:white;fill-rule:nonzero;"/>
        </g>
        <g transform="matrix(4.16667,0,0,4.16667,-1085.08,0)">
            <path d="M265.273,73.834L265.273,82.993C265.273,82.772 265.592,82.592 265.985,82.592C266.379,82.592 266.697,82.772 266.697,82.993L266.697,73.834L265.273,73.834Z" style="fill:rgb(81,82,82);fill-rule:nonzero;"/>
        </g>
        <g transform="matrix(4.16667,0,0,4.16667,-1085.08,0)">
            <path d="M265.985,82.592C265.592,82.592 265.273,82.772 265.273,82.993C265.273,83.214 265.592,83.394 265.985,83.394C266.379,83.394 266.697,83.214 266.697,82.993C266.697,82.772 266.379,82.592 265.985,82.592Z" style="fill:rgb(81,82,82);fill-rule:nonzero;"/>
        </g>
        <g transform="matrix(4.16667,0,0,4.16667,-1085.08,0)">
            <path d="M265.985,73.434C265.592,73.434 265.273,73.613 265.273,73.834C265.273,74.056 265.592,74.235 265.985,74.235C266.379,74.235 266.697,74.056 266.697,73.834C266.697,73.613 266.379,73.434 265.985,73.434Z" style="fill:rgb(102,103,103);fill-rule:nonzero;"/>
        </g>
        <g transform="matrix(4.16667,0,0,4.16667,-1085.08,0)">
            <path d="M270.869,79.397L266.285,82.043L265.708,80.837L270.292,78.19L270.869,79.397Z" style="fill:rgb(81,82,82);fill-rule:nonzero;"/>
        </g>
        <g transform="matrix(4.16667,0,0,4.16667,-1085.08,0)">
            <path d="M270.142,78.54C270.142,78.861 270.337,79.234 270.577,79.373C270.818,79.512 271.013,79.364 271.013,79.043C271.013,78.722 270.818,78.35 270.577,78.21C270.337,78.071 270.142,78.219 270.142,78.54Z" style="fill:rgb(81,82,82);fill-rule:nonzero;"/>
        </g>
        <g transform="matrix(4.16667,0,0,4.16667,-1085.08,0)">
            <path d="M253.784,55.122C253.367,55.184 252.812,55.579 252.363,55.727C252.423,55.186 252.734,53.827 253.042,52.54C253.333,51.323 253.147,50.233 252.586,50.712C252.622,50.174 252.079,49.909 251.933,50.327C251.933,49.748 251.221,49.909 251.102,50.356C250.585,49.909 250.541,50.349 250.122,52.118C249.889,53.106 249.729,54.443 249.619,55.459C249.209,56.262 248.385,57.628 248.116,58.122C247.558,59.147 247.377,60.088 247.569,60.745C247.929,61.971 247.989,62.18 248.464,63.003C248.703,63.419 249.161,63.535 249.649,63.089C249.892,62.869 251.167,62.193 251.354,61.549C251.727,60.271 251.437,57.477 251.677,57.35C252.121,57.116 252.725,56.931 253.102,56.517C253.695,55.864 253.873,56.013 254.348,55.597C254.639,55.343 254.585,55.003 253.784,55.122Z" style="fill:rgb(248,170,150);fill-rule:nonzero;"/>
        </g>
        <g transform="matrix(4.16667,0,0,4.16667,-1085.08,0)">
            <path d="M230.506,69.77C230.506,69.77 238.355,66.897 238.526,65.387C238.697,63.877 238.697,62.346 239.172,62.637C239.646,62.928 239.356,64.478 239.871,64.594C240.386,64.708 241.444,63.832 242.931,63.497C244.751,63.086 245.407,64.577 244.078,65.935C242.749,67.293 241.325,67.223 240.121,68.043C238.917,68.863 235.689,72.209 235.689,72.209L230.506,69.77Z" style="fill:rgb(251,195,178);fill-rule:nonzero;"/>
        </g>
        <g transform="matrix(4.16667,0,0,4.16667,-1085.08,0)">
            <path d="M231.04,64.47C231.04,64.47 226.839,62.152 225.58,65.527C224.345,68.838 225.343,71.043 225.758,71.939C226.174,72.835 231.815,69.333 231.815,69.333L231.04,64.47Z" style="fill:rgb(219,63,50);fill-rule:nonzero;"/>
        </g>
        <g transform="matrix(4.16667,0,0,4.16667,-1085.08,0)">
            <path d="M226.839,95.515C226.839,95.515 227.271,95.256 227.713,94.973C228.276,94.611 229.241,95.286 228.689,95.647C228.149,96.001 227.875,96.182 227.875,96.182L226.839,95.515Z" style="fill:rgb(221,221,221);fill-rule:nonzero;"/>
        </g>
        <g transform="matrix(4.16667,0,0,4.16667,-1085.08,0)">
            <path d="M232.868,121.977C232.153,121.53 228.538,123.636 228.538,123.636L223.873,125.202L223.874,128.537C223.874,128.537 225.703,130.969 228.163,129.312C229.63,128.324 232.203,126.785 233.021,125.105C233.839,123.426 233.582,122.423 232.868,121.977Z" style="fill:rgb(47,48,47);fill-rule:nonzero;"/>
        </g>
        <g transform="matrix(4.16667,0,0,4.16667,-1085.08,0)">
            <path d="M243.994,127.463C243.279,127.017 239.664,129.124 239.664,129.124L234.672,130.799L235.055,134.558C235.055,134.558 236.829,136.457 239.289,134.799C240.756,133.811 243.329,132.272 244.147,130.593C244.965,128.914 244.708,127.91 243.994,127.463Z" style="fill:rgb(47,48,47);fill-rule:nonzero;"/>
        </g>
        <g transform="matrix(4.16667,0,0,4.16667,-1085.08,0)">
            <path d="M226.436,85.841C226.436,85.841 224.423,89.792 224.064,94.558C223.903,96.703 225.082,108.763 225.082,108.763C225.082,108.763 224.536,110.335 224.099,113.385C223.55,117.222 223.171,126.818 223.161,126.456C223.161,126.456 224.4,128.146 226.068,128.176C228.089,128.212 229.664,125.755 229.664,125.755C229.664,125.755 231.897,112.506 232.03,109.132C232.113,107.018 231.84,99.413 231.84,99.413C231.84,99.413 234.005,109.498 233.839,112.072C233.674,114.646 234.167,129.802 234.306,130.863C234.735,132.406 235.992,132.839 237.34,133.139C239.047,133.518 241.287,130.352 241.287,130.352C241.287,130.352 241.154,113.15 241.287,110.444C241.513,105.824 239.726,91.667 239.726,91.667L226.436,85.841Z" style="fill:rgb(19,102,164);fill-rule:nonzero;"/>
        </g>
        <g transform="matrix(4.16667,0,0,4.16667,-1085.08,0)">
            <path d="M234.33,54.042C232.971,53.099 230.356,53.394 229.223,55.79C228.595,57.116 229.481,60.683 229.622,63.187C229.735,65.207 229.059,66.373 229.059,66.373L230.791,67.088C232.523,67.802 234.33,67.088 234.33,67.088L234.273,64.007C234.273,64.007 236.139,63.73 236.466,63.431C237.252,62.71 237.667,60.567 237.303,57.804C236.761,53.689 234.83,54.39 234.33,54.042Z" style="fill:rgb(251,195,178);fill-rule:nonzero;"/>
        </g>
        <g transform="matrix(4.16667,0,0,4.16667,-1085.08,0)">
            <path d="M238.526,85.353C238.108,82.485 238.478,78.198 238.526,76.689C238.627,73.542 238.102,70.848 237.437,69.393C237.068,68.588 236.209,67.883 235.51,67.406C235.49,67.414 234.296,67.87 233.219,67.915C232.132,67.962 230.585,67.632 228.854,66.762C227.123,65.891 229,64.471 229,64.471C228.119,64.287 227.738,64.454 227.183,65.001C225.531,66.624 224.384,68.915 224.927,74.734C225.04,75.94 225.43,79.42 225.402,82.993C225.382,85.523 224.673,88.866 224.575,91.234C225.133,93.453 232.122,94.886 235.017,94.11C235.913,93.87 238.792,93.448 239.726,91.667C239.519,89.909 238.857,87.623 238.526,85.353Z" style="fill:rgb(241,96,92);fill-rule:nonzero;"/>
        </g>
        <g transform="matrix(4.16667,0,0,4.16667,-1085.08,0)">
            <path d="M228.854,66.762C230.585,67.632 232.132,67.962 233.219,67.915C234.296,67.87 235.49,67.414 235.51,67.406C234.944,67.021 234.479,66.781 234.479,66.781C234.479,66.781 231.396,67.188 229.386,65.527C229.462,65.131 229.462,65.131 229.571,64.613C229.355,64.55 229.172,64.506 229,64.47C229,64.47 227.123,65.891 228.854,66.762Z" style="fill:rgb(219,63,50);fill-rule:nonzero;"/>
        </g>
        <g transform="matrix(4.16667,0,0,4.16667,-1085.08,0)">
            <path d="M249.475,76.053C246.935,77.134 242.876,78.505 242.876,78.505C242.876,78.505 238.361,69.792 236.876,69.651C235.856,69.554 235.304,71.442 235.407,73.76C235.488,75.549 237.29,78.74 239.112,81.022L239.111,81.023C239.111,81.023 240.911,83.824 241.669,83.729C242.426,83.634 246.344,81.555 247.57,80.743C248.675,80.011 249.357,79.442 250.467,78.71C250.221,78.092 249.845,76.426 249.475,76.053Z" style="fill:rgb(251,195,178);fill-rule:nonzero;"/>
        </g>
        <g transform="matrix(4.16667,0,0,4.16667,-1085.08,0)">
            <path d="M242.572,76.121C241.231,73.318 238.833,69.221 236.44,68.429C235.366,68.073 234.21,70.733 234.536,73.37C234.74,75.031 235.767,77.59 236.876,79.442C239.014,79.435 241.533,78.04 242.572,76.121Z" style="fill:rgb(219,63,50);fill-rule:nonzero;"/>
        </g>
        <g transform="matrix(4.16667,0,0,4.16667,-1085.08,0)">
            <path d="M249.475,76.053C249.475,76.053 250.189,74.885 250.467,74.1C250.704,73.429 250.915,72.559 250.915,72.559C250.915,72.559 251.22,72.504 251.363,72.883C251.508,73.262 251.492,74.074 251.684,74.392C252.068,75.028 254.031,74.716 254.886,74.567C256.553,74.274 257.762,76.533 255.462,77.43C253.162,78.326 250.467,78.71 250.467,78.71L249.475,76.053Z" style="fill:rgb(251,195,178);fill-rule:nonzero;"/>
        </g>
        <g transform="matrix(4.16667,0,0,4.16667,-1085.08,0)">
            <path d="M236.125,53.744C236.125,53.744 234.366,50.413 231.179,51.631C229.732,52.184 227.578,53.336 227.104,56.278C226.629,59.221 227.607,60.919 228.567,62.372C229.088,63.16 229.354,63.793 229.596,64.679C229.952,64.763 230.713,65.075 231.021,65.264C231.946,64.113 233.55,62.2 234.479,61.575C235.842,60.66 237.979,60.124 238.024,57.146C238.03,56.765 238.074,55.807 237.124,55.253C237.563,55.137 237.819,55.329 238.341,55.049C237.747,53.474 236.125,53.744 236.125,53.744Z" style="fill:rgb(47,48,47);fill-rule:nonzero;"/>
        </g>
        <g transform="matrix(4.16667,0,0,4.16667,-1085.08,0)">
            <path d="M223.58,18.786C223.379,18.786 223.191,18.665 223.114,18.468C223.014,18.21 223.141,17.92 223.398,17.82C224.372,17.441 225.395,17.196 226.438,17.093C226.711,17.068 226.958,17.267 226.985,17.541C227.012,17.816 226.812,18.061 226.536,18.088C225.584,18.182 224.65,18.406 223.761,18.752L223.58,18.786ZM232.326,19.099L232.111,19.05C231.248,18.641 230.333,18.351 229.391,18.188C229.119,18.142 228.937,17.883 228.982,17.611C229.029,17.338 229.285,17.154 229.561,17.203C230.592,17.38 231.595,17.698 232.541,18.147C232.79,18.266 232.896,18.563 232.778,18.813C232.692,18.993 232.513,19.099 232.326,19.099ZM218.837,22.338C218.73,22.338 218.623,22.304 218.532,22.234C218.313,22.065 218.273,21.751 218.442,21.533C219.081,20.705 219.83,19.967 220.667,19.339C220.887,19.172 221.201,19.217 221.367,19.439C221.533,19.66 221.488,19.974 221.267,20.139C220.501,20.713 219.817,21.388 219.233,22.144C219.135,22.271 218.987,22.338 218.837,22.338ZM236.805,22.981C236.644,22.981 236.484,22.903 236.389,22.758C235.858,21.961 235.224,21.24 234.502,20.614C234.293,20.433 234.271,20.117 234.451,19.908C234.631,19.699 234.949,19.677 235.156,19.858C235.946,20.543 236.641,21.332 237.221,22.204C237.374,22.434 237.312,22.744 237.082,22.897C236.996,22.954 236.9,22.981 236.805,22.981ZM216.609,27.829L216.552,27.825C216.277,27.794 216.081,27.546 216.112,27.272C216.23,26.23 216.489,25.211 216.883,24.243C216.987,23.986 217.28,23.863 217.534,23.967C217.79,24.071 217.914,24.363 217.81,24.619C217.45,25.503 217.213,26.434 217.105,27.385C217.076,27.64 216.86,27.829 216.609,27.829ZM238.24,32.051L238.106,32.032C237.84,31.958 237.685,31.683 237.759,31.416C238.014,30.502 238.143,29.551 238.143,28.588L238.196,28.362L238.132,28.137C238.092,27.178 237.923,26.232 237.629,25.328C237.544,25.065 237.688,24.783 237.95,24.698C238.213,24.614 238.495,24.757 238.58,25.019C238.901,26.01 239.087,27.045 239.132,28.095L239.078,28.342L239.143,28.588C239.143,29.642 239.001,30.684 238.722,31.685C238.66,31.906 238.459,32.051 238.24,32.051ZM217.535,33.681C217.345,33.681 217.164,33.573 217.08,33.389C216.644,32.438 216.341,31.431 216.179,30.396C216.136,30.123 216.323,29.867 216.595,29.824C216.874,29.785 217.124,29.969 217.167,30.241C217.315,31.186 217.592,32.105 217.989,32.973C218.104,33.224 217.993,33.521 217.742,33.636L217.535,33.681ZM235.179,37.124C235.046,37.124 234.914,37.072 234.815,36.968C234.626,36.767 234.635,36.451 234.835,36.261C235.531,35.603 236.135,34.856 236.629,34.038C236.772,33.802 237.081,33.728 237.315,33.869C237.552,34.012 237.627,34.319 237.484,34.556C236.943,35.45 236.283,36.269 235.522,36.988C235.426,37.079 235.302,37.124 235.179,37.124ZM221.351,38.214C221.253,38.214 221.155,38.186 221.068,38.126C220.205,37.535 219.425,36.829 218.752,36.028C218.574,35.817 218.601,35.502 218.813,35.324C219.024,35.145 219.339,35.173 219.517,35.385C220.132,36.116 220.845,36.761 221.634,37.301C221.861,37.457 221.919,37.769 221.764,37.997C221.667,38.138 221.51,38.214 221.351,38.214ZM229.94,39.891C229.71,39.891 229.502,39.731 229.452,39.497C229.394,39.227 229.564,38.961 229.835,38.902C230.769,38.701 231.67,38.372 232.516,37.924C232.757,37.796 233.062,37.888 233.191,38.132C233.32,38.376 233.227,38.679 232.982,38.808C232.057,39.298 231.069,39.659 230.046,39.88L229.94,39.891ZM226.959,40.123L226.931,40.123C225.884,40.063 224.852,39.863 223.863,39.527C223.602,39.438 223.462,39.154 223.551,38.893C223.64,38.631 223.923,38.49 224.186,38.581C225.088,38.887 226.03,39.07 226.987,39.124C227.263,39.14 227.474,39.376 227.458,39.652C227.443,39.918 227.223,40.123 226.959,40.123Z" style="fill:white;fill-rule:nonzero;"/>
        </g>
        <g transform="matrix(4.16667,0,0,4.16667,-1085.08,0)">
            <path d="M282.088,22.065C282.088,25.712 279.132,28.668 275.485,28.668C271.839,28.668 268.882,25.712 268.882,22.065C268.882,18.419 271.839,15.463 275.485,15.463C279.132,15.463 282.088,18.419 282.088,22.065Z" style="fill:white;fill-rule:nonzero;"/>
        </g>
    </g>
</svg>
