<?xml version="1.0" encoding="UTF-8" standalone="no"?>
<!DOCTYPE svg PUBLIC "-//W3C//DTD SVG 1.1//EN" "http://www.w3.org/Graphics/SVG/1.1/DTD/svg11.dtd">
<svg width="100%" height="100%" viewBox="0 0 1024 1024" version="1.1" xmlns="http://www.w3.org/2000/svg" xmlns:xlink="http://www.w3.org/1999/xlink" xml:space="preserve" xmlns:serif="http://www.serif.com/" style="fill-rule:evenodd;clip-rule:evenodd;stroke-linejoin:round;stroke-miterlimit:2;">
    <g id="Layer1" transform="matrix(1.32933,0,0,1.32933,-172.674,-27.7132)">
        <path d="M437.83,192.22C437.79,192.3 437.81,192.537 437.89,192.93C440.243,204.49 442.8,215.443 445.56,225.79C445.576,225.854 445.584,225.919 445.584,225.984C445.584,226.418 445.228,226.774 444.794,226.774C444.664,226.774 444.535,226.742 444.42,226.68C443.14,225.967 441.827,225.137 440.48,224.19C434.23,219.79 430.3,211.64 429.09,204.42C428.05,198.2 427.6,188.78 430.16,182.22C430.421,181.56 431.051,181.116 431.76,181.09C433.26,181.05 434.587,181.37 435.74,182.05C436.087,182.25 436.273,182.15 436.3,181.75L436.58,176.61C436.613,176.057 436.357,175.73 435.81,175.63C433.577,175.237 431.053,175.053 428.24,175.08C426.13,175.1 425.26,176.58 424.82,178.47C423.147,185.757 423.1,193.167 424.68,200.7C424.693,200.753 424.653,200.813 424.56,200.88L424.56,200.89C424.473,200.95 424.407,200.92 424.36,200.8C423.907,199.613 423.637,198.68 423.55,198C422.47,189.88 422.813,182.077 424.58,174.59C425.07,172.5 426.25,171.65 428.4,171.38C430.613,171.107 432.847,171.047 435.1,171.2C435.115,171.201 435.13,171.202 435.145,171.202C435.452,171.202 435.705,170.949 435.705,170.642C435.705,170.618 435.703,170.594 435.7,170.57C434.893,164.417 433.973,158.357 432.94,152.39C431.013,141.29 429.66,130.307 428.88,119.44C427.747,103.78 432.557,90.137 443.31,78.51C456.41,64.34 476.46,54.5 495.52,50.73C502.94,49.257 510.633,49.24 518.6,50.68C535.873,53.793 552.017,60.1 567.03,69.6C571.477,72.407 575.667,75.74 579.6,79.6C590.82,90.613 595.793,104.017 594.52,119.81C593.693,130.023 592.053,141.107 589.6,153.06C588.39,158.96 587.57,163.96 586.88,169.16C586.877,169.182 586.876,169.204 586.876,169.226C586.876,169.5 587.101,169.726 587.376,169.726C587.401,169.726 587.425,169.724 587.45,169.72C589.03,169.48 590.65,169.387 592.31,169.44C597.3,169.58 597.49,173.49 598.15,177.79C599.417,185.977 599.243,193.61 597.63,200.69C597.583,200.89 597.46,200.967 597.26,200.92L597.01,200.87C596.97,200.857 596.953,200.83 596.96,200.79C598.64,192.697 598.54,184.44 596.66,176.02C596.367,174.713 595.987,173.877 595.52,173.51C595.187,173.243 594.86,173.107 594.54,173.1C591.707,173.02 589.117,173.377 586.77,174.17C586.15,174.377 585.823,174.807 585.79,175.46L585.47,181.22C585.43,181.9 585.693,182.05 586.26,181.67C592.54,177.4 593.35,185.66 593.5,189.63C593.787,197.363 592.473,205.1 589.56,212.84C587.38,218.633 583.713,223.203 578.56,226.55C578.405,226.659 578.194,226.659 578.03,226.55C577.763,226.383 577.683,226.12 577.79,225.76C580.597,216.207 582.89,206.31 584.67,196.07C584.79,195.37 584.623,195.293 584.17,195.84L580.03,200.81C579.137,201.89 578.76,201.733 578.9,200.34C579.08,198.607 579.15,196.91 579.11,195.25C578.69,179.09 578.63,171.05 577.61,163.03C577.423,161.61 576.853,160.47 575.9,159.61C574.073,157.963 572.367,156.333 570.78,154.72C570.377,154.311 570.214,153.717 570.35,153.15C572.28,145.32 573.85,137.85 573.43,130.27C572.977,122.163 568.613,118.77 560.34,120.09C546.69,122.27 536.4,130.1 522.13,136.12C513.65,139.7 505.86,138.35 497.69,134.76C488.29,130.63 474.73,122.44 461.64,120.14C454.767,118.933 450.847,121.66 449.88,128.32C448.85,135.4 450.57,143.52 452.43,150.61C452.88,152.33 452.78,153.36 451.38,154.69C447.94,157.95 444.49,160.47 444.26,164.52C443.607,175.973 443.667,187.76 444.44,199.88C444.44,199.885 444.44,199.889 444.44,199.894C444.44,200.069 444.296,200.214 444.12,200.214C444.017,200.214 443.92,200.164 443.86,200.08L438.44,192.29C438.193,191.93 437.99,191.907 437.83,192.22Z" style="fill:rgb(44,45,46);fill-rule:nonzero;"/>
        <path d="M486.16,192.28L485.91,196.87C485.894,197.173 485.643,197.415 485.34,197.42C481.593,197.52 477.983,197.493 474.51,197.34C470.43,197.16 468.317,195.093 468.17,191.14C468.13,190.013 468.06,189.133 467.96,188.5C467.9,188.133 467.69,187.913 467.33,187.84C463.057,186.967 458.893,187.03 454.84,188.03C454.12,188.203 453.973,187.983 454.4,187.37C457.38,183.11 459.523,180.097 460.83,178.33C461.817,177.003 463.037,176.493 464.49,176.8C470.283,178.033 481.537,181.35 498.25,186.75C498.63,186.87 498.85,187.127 498.91,187.52L499.72,192.9C499.721,192.904 499.721,192.908 499.722,192.912C499.756,193.173 499.573,193.415 499.317,193.448C499.312,193.449 499.306,193.449 499.3,193.45C498.12,193.563 497.233,193.55 496.64,193.41C492.26,192.397 489.02,191.8 486.92,191.62C486.44,191.58 486.187,191.8 486.16,192.28Z" style="fill:rgb(44,45,46);fill-rule:nonzero;"/>
        <path d="M533.2,192.06L523.26,193.57C523.253,193.571 523.246,193.572 523.238,193.572C523.162,193.572 523.098,193.508 523.098,193.432C523.098,193.424 523.099,193.417 523.1,193.41L524.17,186.79C524.2,186.606 524.332,186.455 524.51,186.4L557.96,176.6C558.981,176.299 560.091,176.667 560.74,177.52L568.91,188.28C569.33,188.84 569.22,188.987 568.58,188.72C563.68,186.687 558.653,186.543 553.5,188.29C553.027,188.45 552.739,188.939 552.83,189.43C553.903,195.33 551.46,198.35 545.5,198.49C542.733,198.55 539.19,198.527 534.87,198.42C534.49,198.407 534.3,198.21 534.3,197.83L534.3,193C534.3,192.976 534.299,192.953 534.297,192.929C534.259,192.41 533.796,192.014 533.27,192.052C533.247,192.054 533.223,192.057 533.2,192.06Z" style="fill:rgb(44,45,46);fill-rule:nonzero;"/>
        <path d="M508.25,239.19C508.723,239.257 508.973,239.053 509,238.58L511.08,201.3C511.087,201.193 511.14,201.133 511.24,201.12L511.51,201.07C511.515,201.07 511.52,201.133 511.52,201.21C511.96,210.277 512.727,222.297 513.82,237.27C513.887,238.17 514.367,238.553 515.26,238.42L525.11,236.92C526.537,236.707 526.72,237.09 525.66,238.07L511.9,250.79C511.675,251 511.325,251.009 511.09,250.81L497.46,239.49C496.387,238.597 496.103,237.967 496.61,237.6C496.843,237.433 497.25,237.41 497.83,237.53C499.977,237.97 503.45,238.523 508.25,239.19Z" style="fill:rgb(44,45,46);fill-rule:nonzero;"/>
        <path d="M445.79,274.3C445.786,274.284 445.781,274.268 445.774,274.253C445.716,274.128 445.563,274.075 445.433,274.135C445.418,274.142 445.404,274.15 445.39,274.16C440.237,278.147 436.53,283.267 434.27,289.52C428.4,305.8 429.22,323.51 434.12,339.94C435.53,344.65 436.79,347.94 439.9,352.05C447.887,362.637 452.747,369.297 454.48,372.03C460.033,380.81 465.89,389.917 472.05,399.35C472.863,400.597 472.7,400.743 471.56,399.79C456.6,387.27 442.03,373.61 426.3,358.66C424.66,357.107 423.64,356.213 423.24,355.98C422.9,355.787 422.543,355.747 422.17,355.86C408.883,360.02 396.993,364.4 386.5,369C385.873,369.28 385.723,369.117 386.05,368.51C390.67,360.103 393.367,355.163 394.14,353.69C399.307,343.79 405.997,330.38 414.21,313.46C417.237,307.233 421.113,300.187 425.84,292.32C430.893,283.9 437.447,276.22 445.5,269.28C445.747,269.06 445.9,268.787 445.96,268.46C446.12,267.56 446.19,265.99 446.17,263.75C446.09,251.937 445.33,240.797 443.89,230.33C443.877,230.23 443.917,230.18 444.01,230.18L444.34,230.18C444.513,230.18 444.613,230.27 444.64,230.45C446.493,242.13 451.207,252.893 458.78,262.74C468.74,275.69 477.53,286.8 489.83,296.77C494.143,300.263 499.547,302.12 506.04,302.34C513.27,302.59 519.88,303.24 525.24,301.21C529.533,299.577 533.003,297.53 535.65,295.07C547.73,283.83 558.967,270.513 569.36,255.12C574.76,247.12 576.95,239.59 578.84,230.54C579.033,229.6 579.143,229.603 579.17,230.55C579.197,231.237 579.05,233.38 578.73,236.98C577.89,246.48 577.477,256.47 577.49,266.95C577.49,267.523 577.727,267.977 578.2,268.31C584.22,272.59 589.663,277.61 594.53,283.37C595.45,284.463 598.407,288.86 603.4,296.56C605.96,300.507 608.64,305.033 611.44,310.14C621.667,328.807 631.557,347.197 641.11,365.31C641.723,366.483 641.42,366.817 640.2,366.31L603.46,351.11C602.862,350.866 602.173,350.987 601.69,351.42C598.357,354.413 593.497,358.977 587.11,365.11C576.937,374.87 564.993,385.793 551.28,397.88C550.553,398.52 550.463,398.44 551.01,397.64C554.39,392.653 562.537,380.583 575.45,361.43C577.163,358.883 580.58,354.39 585.7,347.95C589,343.81 591.4,338.45 592.71,333.13C596.65,317.137 595.35,301.687 588.81,286.78C586.45,281.407 583.14,276.97 578.88,273.47C577.933,272.683 577.43,272.907 577.37,274.14C577.25,276.48 577.75,278.18 579.21,280.49C582.93,286.39 584.247,293.06 583.16,300.5C582.08,307.94 580.023,315.383 576.99,322.83C572.6,333.62 566.67,345.15 560.06,354.85C555.08,362.177 550.18,369.437 545.36,376.63C540.107,384.457 534.787,395.053 529.4,408.42C525.827,417.273 521.703,428.503 517.03,442.11C514.91,448.277 513.337,453.473 512.31,457.7C512.13,458.467 511.9,458.48 511.62,457.74C510.95,455.94 510.78,453.59 510.2,451.68C505.86,437.487 500.95,423.713 495.47,410.36C490.357,397.9 483.817,386.03 475.85,374.75C470.797,367.603 466.403,361.253 462.67,355.7C454.083,342.927 447.65,328.86 443.37,313.5C441.117,305.387 440.307,297.737 440.94,290.55C441.207,287.543 442.413,284.337 444.56,280.93C445.92,278.77 446.31,276.68 445.79,274.3ZM472.64,348.24C480.893,360.4 490.577,373.997 501.69,389.03C504.29,392.54 507.55,397.75 510.93,401.9C510.952,401.927 510.975,401.952 510.999,401.976C511.316,402.279 511.824,402.272 512.124,401.959C512.147,401.934 512.17,401.908 512.19,401.88C521.59,389.21 531.82,375.06 542.19,361.1C550.423,350.02 557.68,338.433 563.96,326.34C570.8,313.17 574.97,300.84 575.12,286.99C575.293,270.843 575.49,259.043 575.71,251.59C575.737,250.81 575.557,250.763 575.17,251.45C565.343,269.07 554.413,285.31 542.38,300.17C537.48,306.223 533.487,310.383 530.4,312.65C510.68,327.14 494.1,316.55 481.04,300.56C468.68,285.433 457.757,269.453 448.27,252.62C447.67,251.553 447.37,251.633 447.37,252.86C447.38,259.4 447.88,264.31 447.85,271.99C447.817,280.263 448.023,287.35 448.47,293.25C449.3,304.29 453.92,315.97 459.16,325.75C463.6,334.05 468.093,341.547 472.64,348.24Z" style="fill:rgb(44,45,46);fill-rule:nonzero;"/>
        <path d="M506.5,258C510.34,259.24 513.96,258.72 517.58,257.06C517.88,256.927 518.187,256.9 518.5,256.98C522.33,257.96 529.89,259.69 535.02,262.38C535.88,262.833 535.827,263.067 534.86,263.08C518.52,263.28 503.317,263.42 489.25,263.5C488.73,263.507 488.393,263.483 488.24,263.43C487.5,263.19 487.493,262.927 488.22,262.64C493.007,260.753 497.937,259.03 503.01,257.47C503.643,257.27 504.807,257.447 506.5,258Z" style="fill:rgb(44,45,46);fill-rule:nonzero;"/>
        <g transform="matrix(0.997053,0.076719,-0.076719,0.997053,511.48,274.41)">
            <ellipse cx="0" cy="0" rx="2.76" ry="0.57" style="fill:rgb(44,45,46);"/>
        </g>
        <path d="M355.76,441.77C355.707,441.617 355.623,441.6 355.51,441.72L355.33,441.91C355.323,441.917 355.323,441.927 355.33,441.94C358.47,454.587 362.027,468.853 366,484.74C366.4,486.353 366.943,487.913 367.63,489.42C372.457,500.06 374.89,505.427 374.93,505.52C376.337,508.653 377.26,510.78 377.7,511.9C378.68,514.36 378.367,514.533 376.76,512.42L346.41,472.43C346.33,472.323 346.277,472.28 346.25,472.3L346.24,472.3C346.147,472.353 346.13,472.427 346.19,472.52C354.263,486.547 360.983,498.67 366.35,508.89C368.543,513.063 371.977,520.61 376.65,531.53C376.661,531.553 376.665,531.578 376.662,531.602C376.653,531.678 376.578,531.733 376.497,531.724C376.473,531.721 376.45,531.713 376.43,531.7C375.643,531.14 374.883,530.41 374.15,529.51C373.097,528.217 372.43,527.43 372.15,527.15C357.64,512.61 340.4,500.25 323.13,489.01C323.017,488.93 322.927,488.93 322.86,489.01C322.84,489.037 322.827,489.067 322.82,489.1C322.8,489.153 322.817,489.21 322.87,489.27C328.91,495.51 336.84,504.39 341.18,509.4C348.773,518.16 355.21,527.397 360.49,537.11C360.514,537.153 360.535,537.198 360.552,537.244C360.727,537.724 360.473,538.264 359.989,538.441C359.944,538.457 359.897,538.47 359.85,538.48C346.96,540.98 336.01,546.5 327.71,556.81C326.817,557.917 326.96,558.073 328.14,557.28C335.893,552.06 343.89,548.03 352.13,545.19C356.29,543.763 362.787,542.31 371.62,540.83C379.953,539.437 388.393,538.07 396.94,536.73C412.027,534.363 426.88,532.057 441.5,529.81C490.487,522.297 520.217,517.733 530.69,516.12C546.87,513.64 562.88,511.6 579,509.52C580.667,509.3 582.167,509.22 583.5,509.28C583.981,509.304 584.412,509.593 584.62,510.03C590.36,521.943 595.9,534.807 601.24,548.62C601.271,548.702 601.287,548.789 601.287,548.876C601.287,549.199 601.071,549.484 600.76,549.57C592.86,551.803 583.317,554.827 572.13,558.64C548.803,566.607 526.537,574.933 505.33,583.62C480.083,593.973 454.287,605.11 427.94,617.03C425.027,618.343 425.137,618.68 428.27,618.04C440.523,615.533 452.77,613.297 465.01,611.33C467.643,610.903 467.737,611.223 465.29,612.29C456.11,616.27 445.24,621.99 434.8,626.05C422.99,630.63 410.15,633.07 397.99,632.86C386.917,632.673 378.34,632.88 372.26,633.48C357.3,634.967 343.027,638.297 329.44,643.47C326.893,644.443 325.13,645.053 324.15,645.3C323.91,645.358 323.661,645.337 323.44,645.24C322.607,644.873 321.61,644.22 320.45,643.28C311.437,635.967 304.593,627.09 299.92,616.65C289.473,593.31 278.307,567.343 266.42,538.75C264.007,532.937 261.673,526.083 259.42,518.19C255.8,505.517 256.187,492.91 260.58,480.37C262.433,475.083 264.14,470.517 265.7,466.67C265.9,466.177 265.787,465.233 265.36,463.84C261.76,452.18 260.557,440.907 261.75,430.02C263.97,409.82 271.49,393.56 280.82,374.72C281.44,373.46 281.57,372.62 281.77,371.13C281.817,370.797 281.967,370.517 282.22,370.29C282.967,369.643 283.76,369.147 284.6,368.8C291.113,366.1 301.77,361.883 316.57,356.15C342.99,345.903 371.233,335.87 401.3,326.05C403.727,325.257 405.533,324.843 406.72,324.81C407.12,324.803 407.21,324.97 406.99,325.31C406.363,326.297 405.687,326.943 404.96,327.25C404.18,327.583 401.713,328.483 397.56,329.95C354.253,345.243 317.087,359.21 286.06,371.85C286.039,371.859 286.019,371.868 285.999,371.878C285.594,372.086 285.429,372.586 285.634,372.986C285.645,373.008 285.657,373.029 285.67,373.05L288.73,377.9C289.05,378.4 289.49,378.547 290.05,378.34C295.19,376.387 302.117,373.98 310.83,371.12C343.857,360.28 370.377,351.817 390.39,345.73C391.363,345.43 391.577,345.71 391.03,346.57L366.26,385.42C365.86,386.053 366.003,386.22 366.69,385.92C385.557,377.747 404.257,370.6 422.79,364.48C423.625,364.205 424.545,364.35 425.26,364.87C426.533,365.797 427.967,366.92 429.56,368.24C443.12,379.42 456.723,390.307 470.37,400.9C471.89,402.087 473.1,403.74 474,405.86C478.393,416.2 480.757,421.763 481.09,422.55C481.53,423.597 481.233,423.88 480.2,423.4C478.28,422.52 476.39,420.86 474.63,419.88C465.337,414.693 456.497,408.91 448.11,402.53C446.937,401.643 446.77,401.803 447.61,403.01C451.077,407.977 455.21,413.513 460.01,419.62C477.49,441.847 494.487,464.66 511,488.06C511.151,488.278 511.4,488.409 511.666,488.409C511.918,488.409 512.157,488.291 512.31,488.09C527.29,468.477 536.733,456.077 540.64,450.89C552.74,434.823 564.027,418.573 574.5,402.14C574.747,401.747 574.683,401.687 574.31,401.96C567.183,407.213 558.047,413.857 546.9,421.89C545.207,423.11 543.84,424.22 542.8,425.22C541.633,426.34 541.34,426.147 541.92,424.64C545.273,415.96 547.59,409.88 548.87,406.4C549.23,405.42 550.113,404.373 551.52,403.26C570.493,388.22 587.383,375.317 602.19,364.55C602.597,364.25 603.037,364.183 603.51,364.35C622.577,370.99 642.173,378.67 662.3,387.39C662.853,387.63 662.97,387.497 662.65,386.99L635.27,343.61C634.723,342.743 634.943,342.457 635.93,342.75L738.12,373.01C738.122,373.011 738.124,373.011 738.126,373.012C738.357,373.08 738.602,372.95 738.669,372.723C738.669,372.722 738.67,372.721 738.67,372.72L740.38,366.96C740.402,366.87 740.355,366.776 740.27,366.74C731.51,362.953 717.897,357.56 699.43,350.56C678.67,342.687 660.2,336.05 644.02,330.65C638.73,328.88 631.13,326.62 623.98,324.05C622.42,323.49 621.097,322.72 620.01,321.74C618.977,320.807 619.15,320.427 620.53,320.6C620.963,320.653 621.74,320.84 622.86,321.16C640.273,326.2 660.543,332.943 683.67,341.39C707.96,350.26 724.38,356.26 743.56,364.19C744.327,364.503 744.9,365.273 745.28,366.5C745.607,367.58 745.973,368.423 746.38,369.03C752.607,378.303 757.73,387.8 761.75,397.52C770.537,418.78 771.4,440.393 764.34,462.36C764.273,462.573 764.283,462.987 764.37,463.6C764.443,464.087 764.563,464.507 764.73,464.86C769.35,474.47 772.53,484.38 773.07,494.97C773.35,500.383 772.737,506.873 771.23,514.44C769.097,525.12 766.323,535.45 762.91,545.43C757.277,561.91 752.427,576.817 748.36,590.15C745.513,599.47 742.477,607.6 739.25,614.54C734.563,624.593 728.343,633.943 720.59,642.59C719.52,643.78 718.7,644.01 717.08,643.71C698.533,640.257 680.68,638.417 663.52,638.19C652.967,638.057 646.527,637.947 644.2,637.86C628.03,637.26 612.68,633.23 597.48,626.76C593.72,625.167 588.27,622.94 581.13,620.08C578.63,619.08 578.71,618.797 581.37,619.23L625.43,626.35C625.803,626.41 625.833,626.333 625.52,626.12C625.2,625.907 624.737,625.68 624.13,625.44C574.097,605.687 546.167,594.687 540.34,592.44C536.74,591.06 533.143,589.757 529.55,588.53C529.364,588.467 529.239,588.291 529.239,588.095C529.239,587.926 529.332,587.77 529.48,587.69C546.08,578.81 563.51,571.453 581.77,565.62C599.63,559.92 618.34,557.72 637.29,557.72C650.057,557.713 662.263,558.51 673.91,560.11C674.843,560.237 674.877,560.117 674.01,559.75C668.677,557.517 662.917,555.633 656.73,554.1C656.545,554.057 656.413,553.891 656.413,553.701C656.413,553.57 656.475,553.447 656.58,553.37C661.627,549.483 665.927,545.187 669.48,540.48C678.28,528.84 684.933,515.727 689.44,501.14C689.74,500.167 689.623,500.113 689.09,500.98C681.717,512.993 673.323,524.347 663.91,535.04C659.55,539.99 653.03,546.19 649.29,549.91C648.75,550.443 648.66,550.373 649.02,549.7C657.533,533.793 664.22,517.507 669.08,500.84C674.04,483.84 675.07,467.94 676.22,447.79C676.707,439.217 678.453,430.1 681.46,420.44C681.48,420.369 681.44,420.294 681.37,420.27C681.123,420.203 681.067,420.187 681.2,420.22C681.24,420.227 681.253,420.25 681.24,420.29C678.673,425.21 676.283,430.713 674.07,436.8C669.943,448.12 664.117,464.303 656.59,485.35C652.96,495.5 649.32,504.46 645.1,515.19C644.938,515.594 644.481,515.803 644.07,515.66C636.15,512.907 627.18,510.673 617.16,508.96C609.107,507.573 603.42,506.723 600.1,506.41C595.52,505.97 591.42,503.33 586.63,501.12C584.45,500.107 582.557,499.737 580.95,500.01C579.303,500.283 556.77,504.037 513.35,511.27C505.923,512.51 499.357,513.67 493.65,514.75C460.73,520.977 425.527,527.347 388.04,533.86C388.038,533.86 388.036,533.861 388.033,533.861C387.784,533.898 387.548,533.728 387.512,533.484C387.511,533.479 387.511,533.475 387.51,533.47C386.57,526.1 384.94,519.16 381.85,511.27C376.16,496.75 370.6,479.97 364.21,464.13C361.577,457.603 358.76,450.15 355.76,441.77Z" style="fill:rgb(44,45,46);fill-rule:nonzero;"/>
        <path d="M480.69,618.17C492.937,609.457 504.443,601.937 515.21,595.61C515.763,595.283 516.323,595.277 516.89,595.59C525.137,600.103 533.13,604.623 540.87,609.15C541.29,609.397 546.95,612.92 557.85,619.72C575.003,630.413 593.02,638.72 611.9,644.64C616.28,646.013 620.857,647.153 625.63,648.06C625.658,648.065 625.685,648.072 625.712,648.082C626.002,648.183 626.156,648.51 626.052,648.805C626.043,648.831 626.033,648.856 626.02,648.88C625.74,649.393 625.233,650.097 624.5,650.99C603.547,676.35 581.333,700.137 557.86,722.35C543.833,735.63 529.013,747.893 513.4,759.14C512.313,759.92 511.147,759.837 509.9,758.89C482.887,738.437 457.787,715.52 434.6,690.14C419.387,673.493 406.823,659.223 396.91,647.33C396.677,647.05 396.743,646.9 397.11,646.88C409.09,646.267 421.153,644.5 433.3,641.58C443.76,639.067 453.25,635.367 461.77,630.48C467.363,627.267 473.67,623.163 480.69,618.17Z" style="fill:rgb(44,45,46);fill-rule:nonzero;"/>
    </g>
</svg>
